<?xml version="1.0" encoding="UTF-8" standalone="no"?>
<svg
   xmlns:dc="http://purl.org/dc/elements/1.1/"
   xmlns:cc="http://creativecommons.org/ns#"
   xmlns:rdf="http://www.w3.org/1999/02/22-rdf-syntax-ns#"
   xmlns:svg="http://www.w3.org/2000/svg"
   xmlns="http://www.w3.org/2000/svg"
   xmlns:sodipodi="http://sodipodi.sourceforge.net/DTD/sodipodi-0.dtd"
   xmlns:inkscape="http://www.inkscape.org/namespaces/inkscape"
   width="301.89453pt"
   height="60.072987pt"
   viewBox="0 0 301.89452 60.072985"
   version="1.2"
   id="svg63"
   sodipodi:docname="Chalmers text.svg"
   inkscape:version="0.92.4 (5da689c313, 2019-01-14)">
  <metadata
     id="metadata69">
    <rdf:RDF>
      <cc:Work
         rdf:about="">
        <dc:format>image/svg+xml</dc:format>
        <dc:type
           rdf:resource="http://purl.org/dc/dcmitype/StillImage" />
        <dc:title></dc:title>
      </cc:Work>
    </rdf:RDF>
  </metadata>
  <defs
     id="defs67" />
  <sodipodi:namedview
     pagecolor="#ffffff"
     bordercolor="#666666"
     borderopacity="1"
     objecttolerance="10"
     gridtolerance="10"
     guidetolerance="10"
     inkscape:pageopacity="0"
     inkscape:pageshadow="2"
     inkscape:window-width="640"
     inkscape:window-height="480"
     id="namedview65"
     showgrid="false"
     inkscape:zoom="0.70242256"
     inkscape:cx="176.30998"
     inkscape:cy="40.440625"
     inkscape:window-x="0"
     inkscape:window-y="0"
     inkscape:window-maximized="0"
     inkscape:current-layer="svg63" />
  <g
     id="surface60"
     transform="translate(-9.242188,-21.282483)">
    <path
       style="fill:#211e1e;fill-opacity:1;fill-rule:nonzero;stroke:none"
       d="m 46.5625,43.207031 c -0.570312,1.976563 -1.277344,4.265625 -4.046875,6.871094 -2.507812,2.335938 -6.648437,4.988281 -14.570312,4.988281 -11.046875,0 -18.703125,-5.886718 -18.703125,-16.980468 0,-11.945313 9.328125,-16.796875 19.144531,-16.796875 3.566406,0 12.929687,0.855468 17.054687,8.457031 L 37.675781,32.25 c -0.839843,-1.347656 -3.3125,-4.84375 -9.34375,-4.84375 -7.042968,0 -10.992187,4.707031 -10.992187,10.773438 0,6.914062 5.371094,10.597656 11.269531,10.597656 6.730469,0 8.757813,-3.59375 9.765625,-5.523438 l 8.1875,-0.04687"
       id="path2"
       inkscape:connector-curvature="0" />
    <path
       style="fill:#211e1e;fill-opacity:1;fill-rule:nonzero;stroke:none"
       d="m 49.964844,22.28125 h 7.789062 V 34.496094 H 76.15625 V 22.28125 h 7.792969 V 53.984375 H 76.15625 V 40.378906 H 57.753906 V 53.984375 H 49.964844 V 22.28125"
       id="path4"
       inkscape:connector-curvature="0" />
    <path
       style="fill:#211e1e;fill-opacity:1;fill-rule:nonzero;stroke:none"
       d="m 107.58984,32.023438 c -0.22265,-0.402344 -0.39453,-0.851563 -0.52734,-1.257813 -0.13281,-0.402344 -0.22266,-0.804687 -0.26562,-1.253906 -0.13282,0.402344 -0.21875,0.761719 -0.3086,1.121094 -0.17578,0.402343 -0.30469,0.808593 -0.48437,1.210937 l -4.33594,9.601563 h 10.03125 z m -4.92968,-9.742188 h 8.40625 l 15.00781,31.703125 h -8.71484 L 114.28125,47.0625 H 99.144531 l -3,6.921875 H 87.652344 L 102.66016,22.28125"
       id="path6"
       inkscape:connector-curvature="0" />
    <path
       style="fill:#211e1e;fill-opacity:1;fill-rule:nonzero;stroke:none"
       d="m 130.07812,22.28125 h 7.79297 v 25.867188 h 15.69141 v 5.835937 H 130.07812 V 22.28125"
       id="path8"
       inkscape:connector-curvature="0" />
    <path
       style="fill:#211e1e;fill-opacity:1;fill-rule:nonzero;stroke:none"
       d="m 158.25,22.28125 h 11.22266 l 8.10156,19.398438 c 0.83594,2.066406 1.14453,2.917968 1.58203,4.71875 0.30859,-1.347657 0.57031,-2.15625 1.45312,-4.359375 l 8.09766,-19.757813 h 11.13281 v 31.703125 h -7.34765 V 31.800781 c 0,-0.941406 0.13281,-1.75 0.30859,-2.964843 -0.30859,0.945312 -0.4375,1.304687 -0.87891,2.425781 l -9.28515,22.722656 h -7.08985 l -9.28515,-22.273437 c -0.48438,-1.214844 -0.57031,-1.570313 -0.92188,-2.875 0.12891,1.347656 0.17188,1.617187 0.26172,2.832031 V 53.984375 H 158.25 V 22.28125"
       id="path10"
       inkscape:connector-curvature="0" />
    <path
       style="fill:#211e1e;fill-opacity:1;fill-rule:nonzero;stroke:none"
       d="m 207.04687,22.28125 h 28.95704 v 5.699219 H 214.83594 V 35.125 h 18.64453 v 5.613281 h -18.64453 v 7.589844 h 22.05078 v 5.65625 H 207.04687 V 22.28125"
       id="path12"
       inkscape:connector-curvature="0" />
    <path
       style="fill:#211e1e;fill-opacity:1;fill-rule:nonzero;stroke:none"
       d="m 285.30469,44.320313 c 1.82031,3.785156 6.28906,4.871093 10.51172,4.796875 1.89453,-0.03516 7.82812,-0.453125 7.76171,-4.316407 -0.0391,-2.289062 -2.20312,-2.789062 -3.8789,-3.074218 -1.28516,-0.246094 -7.67969,-1.121094 -9.13672,-1.363282 -2.87109,-0.488281 -10.10938,-1.75 -10.23438,-8.9375 -0.0273,-1.570312 0.38672,-3.195312 1.15625,-4.511718 2.51954,-4.3125 8.22657,-5.535157 13.15625,-5.625 4.52735,-0.07813 8.01563,0.53125 11.26172,2.269531 3.19922,1.695312 4.60157,4.007812 5.23438,5.027344 l -7.36328,2.019531 c -0.26953,-0.492188 -0.90235,-1.644531 -2.76953,-2.558594 -2.08594,-0.996094 -4.77344,-1.128906 -6.26563,-1.097656 -3.43359,0.05859 -6.94531,0.796875 -6.89453,3.804687 0.0391,2.066407 1.85156,2.574219 4.19141,3.070313 1.27734,0.246094 7.63281,1.210937 9.08984,1.5 3.62109,0.605469 9.76172,1.84375 9.88281,8.804687 0.17578,10.195313 -11.01953,10.773438 -15.55469,10.835938 -5.10937,0.07031 -13.05859,-0.667969 -17.20312,-8.632813 l 7.05469,-2.011718"
       id="path14"
       inkscape:connector-curvature="0" />
    <path
       style="fill:#211e1e;fill-opacity:1;fill-rule:nonzero;stroke:none"
       d="m 250.52344,35.636719 h 12.41015 c 1.67578,0 4.66797,-0.222656 4.66797,-3.773438 0,-0.628906 -0.0898,-1.707031 -0.61719,-2.46875 -0.57031,-0.765625 -1.32031,-1.527343 -4.40234,-1.527343 h -12.05859 z m -7.78907,-13.339844 h 21.38672 c 3.52344,0 6.73438,0.316406 9.33203,3.371094 1.58594,1.882812 2.02344,4.265625 2.02344,6.105469 0,2.425781 -0.78906,5.300781 -2.99219,7.007812 -1.66796,1.300781 -3.82812,1.75 -5.0625,1.972656 l 9.41797,13.25 h -8.9414 L 259.37109,41.25 h -8.84765 v 12.753906 h -7.78907 V 22.296875"
       id="path16"
       inkscape:connector-curvature="0" />
    <path
       style="fill:#211e1e;fill-opacity:1;fill-rule:nonzero;stroke:none"
       d="m 25.601563,68.828125 v 6.789063 c -0.01563,1.171875 -0.03125,2.34375 -0.691407,3.445312 -1.285156,2.101563 -3.9375,2.207031 -4.441406,2.207031 -0.894531,0 -1.960937,-0.226562 -2.769531,-0.65625 -2.296875,-1.207031 -2.296875,-3.339843 -2.28125,-4.996093 v -6.789063 h 3.007812 v 7.582031 c 0,0.621094 0.01563,1.136719 0.21875,1.515625 0.371094,0.640625 1.183594,0.828125 1.925782,0.828125 2.027343,0 2.027343,-1.414062 2.042968,-2.359375 v -7.566406 h 2.988282"
       id="path18"
       inkscape:connector-curvature="0" />
    <path
       style="fill:#211e1e;fill-opacity:1;fill-rule:nonzero;stroke:none"
       d="m 30.042969,68.828125 h 2.921875 l 2.585937,4.480469 c 0.945313,1.707031 1.230469,2.257812 1.789063,3.324219 l -0.136719,-7.804688 h 2.855469 V 80.992188 H 37.136719 L 34.90625,77.152344 C 33.828125,75.339844 33.625,74.960938 32.8125,73.34375 l 0.08594,7.648438 H 30.042969 V 68.828125"
       id="path20"
       inkscape:connector-curvature="0" />
    <path
       style="fill:#211e1e;fill-opacity:1;fill-rule:nonzero;stroke:none"
       d="M 47.558594,68.828125 V 80.992188 H 44.585938 V 68.828125 h 2.972656"
       id="path22"
       inkscape:connector-curvature="0" />
    <path
       style="fill:#211e1e;fill-opacity:1;fill-rule:nonzero;stroke:none"
       d="m 58.332031,68.828125 h 3.175782 L 57.371094,80.992188 H 54.328125 L 50.242188,68.828125 h 3.175781 l 2.464844,8.648438 2.449218,-8.648438"
       id="path24"
       inkscape:connector-curvature="0" />
    <path
       style="fill:#211e1e;fill-opacity:1;fill-rule:nonzero;stroke:none"
       d="m 64.191406,68.828125 h 8.816407 v 2.363281 h -5.84375 v 2.203125 h 5.457031 v 2.308594 h -5.457031 v 2.894531 h 6.371093 v 2.394532 h -9.34375 V 68.828125"
       id="path26"
       inkscape:connector-curvature="0" />
    <path
       style="fill:#211e1e;fill-opacity:1;fill-rule:nonzero;stroke:none"
       d="m 80.304688,71.101563 v 3.292968 h 2.46875 c 0.421875,-0.01563 1.789062,-0.05078 1.789062,-1.671875 0,-1.550781 -1.097656,-1.601562 -1.722656,-1.621093 z M 77.316406,68.828125 H 82.6875 c 1.25,0.01563 2.804688,0.03516 3.902344,1.242188 0.558594,0.636718 0.945312,1.601562 0.945312,2.703125 0,2.449218 -1.636718,3.050781 -2.449218,3.363281 l 2.753906,4.855469 h -3.292969 l -2.367187,-4.339844 h -1.875 v 4.339844 H 77.316406 V 68.828125"
       id="path28"
       inkscape:connector-curvature="0" />
    <path
       style="fill:#211e1e;fill-opacity:1;fill-rule:nonzero;stroke:none"
       d="m 92.785156,77.339844 c 0.304688,0.34375 0.558594,0.621094 1.148438,0.945312 0.796875,0.433594 1.605469,0.585938 2.296875,0.585938 1.183594,0 2.199219,-0.566406 2.199219,-1.410156 0,-0.964844 -1.199219,-1.117188 -2.078125,-1.242188 -0.660157,-0.08203 -1.320313,-0.171875 -1.960938,-0.308594 -0.726562,-0.15625 -3.207031,-0.6875 -3.207031,-3.308593 0,-3.136719 2.734375,-4.066407 4.796875,-4.066407 2.75,0 4.238281,1.363282 5.269531,2.308594 l -2.199219,1.601563 C 98.679688,72.066406 98.34375,71.742188 97.871094,71.464844 97.449219,71.222656 96.6875,70.929688 95.929688,70.929688 c -1.183594,0 -1.773438,0.691406 -1.773438,1.277343 0,0.929688 1.011719,1.066407 1.519531,1.136719 1.265625,0.152344 2.972657,0.480469 3.648438,0.722656 1.367191,0.515625 2.058591,1.601563 2.058591,2.980469 0,0.878906 -0.32031,1.84375 -0.94531,2.585938 -1.082031,1.273437 -2.800781,1.636718 -4.476562,1.636718 -3.359375,0 -4.695313,-1.585937 -5.4375,-2.464843 l 2.261718,-1.464844"
       id="path30"
       inkscape:connector-curvature="0" />
    <path
       style="fill:#211e1e;fill-opacity:1;fill-rule:nonzero;stroke:none"
       d="m 108.32422,68.828125 v 12.164063 h -2.97266 V 68.828125 h 2.97266"
       id="path32"
       inkscape:connector-curvature="0" />
    <path
       style="fill:#211e1e;fill-opacity:1;fill-rule:nonzero;stroke:none"
       d="m 111.14453,68.8125 h 9.1875 v 2.410156 h -3.08984 v 9.769532 h -2.98828 v -9.769532 h -3.10938 V 68.8125"
       id="path34"
       inkscape:connector-curvature="0" />
    <path
       style="fill:#211e1e;fill-opacity:1;fill-rule:nonzero;stroke:none"
       d="M 122.07422,68.828125 H 125.5 L 128.07031,73 c 0.15235,-0.34375 0.1836,-0.414062 0.48828,-0.914062 l 2.04297,-3.257813 h 3.39453 l -4.50781,6.410156 v 5.753907 h -2.9414 v -5.667969 l -4.47266,-6.496094"
       id="path36"
       inkscape:connector-curvature="0" />
    <path
       style="fill:#211e1e;fill-opacity:1;fill-rule:nonzero;stroke:none"
       d="m 150.3125,71.878906 c -0.50781,-0.550781 -1.28516,-0.894531 -2.09375,-0.894531 -1.80859,0 -2.95703,1.617188 -2.95703,3.820313 0,2.898437 1.58984,3.964843 2.99219,3.964843 1.41796,0 2.9375,-1.035156 3.02343,-3.585937 0.0508,-1.273438 -0.28906,-2.566406 -0.96484,-3.304688 z m -2.05859,9.460938 c -3.78516,0 -5.92969,-2.964844 -5.92969,-6.480469 0,-3.289062 2.04297,-6.410156 5.8789,-6.410156 0.70704,0 1.44922,0.101562 2.17579,0.363281 3.64843,1.289063 3.88671,5.339844 3.88671,6.167969 0,2.101562 -0.94531,3.996094 -2.26562,5.082031 -1.16406,0.980469 -2.51563,1.277344 -3.74609,1.277344"
       id="path38"
       inkscape:connector-curvature="0" />
    <path
       style="fill:#211e1e;fill-opacity:1;fill-rule:nonzero;stroke:none"
       d="m 166.79687,68.828125 v 2.34375 h -6.17968 v 2.550781 h 5.6914 v 2.359375 h -5.6914 v 4.910157 h -2.97266 V 68.828125 h 9.15234"
       id="path40"
       inkscape:connector-curvature="0" />
    <path
       style="fill:#211e1e;fill-opacity:1;fill-rule:nonzero;stroke:none"
       d="m 174.80078,68.8125 h 9.1875 v 2.410156 h -3.08984 v 9.769532 h -2.98828 v -9.769532 h -3.10938 V 68.8125"
       id="path42"
       inkscape:connector-curvature="0" />
    <path
       style="fill:#211e1e;fill-opacity:1;fill-rule:nonzero;stroke:none"
       d="m 186.84375,68.828125 h 8.81641 v 2.363281 h -5.84375 v 2.203125 h 5.45703 v 2.308594 h -5.45703 v 2.894531 h 6.36718 v 2.394532 h -9.33984 V 68.828125"
       id="path44"
       inkscape:connector-curvature="0" />
    <path
       style="fill:#211e1e;fill-opacity:1;fill-rule:nonzero;stroke:none"
       d="m 209.98437,78.21875 c -0.4375,0.707031 -0.86328,1.394531 -1.80859,2.066406 -0.50781,0.363282 -1.67187,1.070313 -3.32812,1.070313 -3.15625,0 -5.70704,-2.34375 -5.70704,-6.460938 0,-3.601562 2.39844,-6.445312 5.77735,-6.445312 1.36719,0 2.58203,0.480469 3.48047,1.207031 0.82812,0.671875 1.21484,1.34375 1.55078,1.945313 l -2.36328,1.207031 C 207.41797,72.410156 207.21484,72 206.69141,71.550781 c -0.57422,-0.464843 -1.15235,-0.601562 -1.64063,-0.601562 -1.92187,0 -2.9375,1.824219 -2.9375,3.855469 0,2.671875 1.33594,4 2.9375,4 1.55469,0 2.17969,-1.101563 2.58594,-1.808594 l 2.34765,1.222656"
       id="path46"
       inkscape:connector-curvature="0" />
    <path
       style="fill:#211e1e;fill-opacity:1;fill-rule:nonzero;stroke:none"
       d="m 223.12109,68.828125 v 12.164063 h -2.98437 v -5.183594 h -4.35938 v 5.183594 h -3.00781 V 68.828125 h 3.00781 v 4.394531 h 4.35938 v -4.394531 h 2.98437"
       id="path48"
       inkscape:connector-curvature="0" />
    <path
       style="fill:#211e1e;fill-opacity:1;fill-rule:nonzero;stroke:none"
       d="m 227.64844,68.828125 h 2.92578 l 2.58203,4.480469 c 0.94531,1.707031 1.23437,2.257812 1.78906,3.324219 l -0.13281,-7.804688 h 2.85547 v 12.164063 h -2.92188 l -2.23047,-3.839844 c -1.08203,-1.8125 -1.28515,-2.191406 -2.09375,-3.808594 l 0.082,7.648438 H 227.6484 V 68.828125"
       id="path50"
       inkscape:connector-curvature="0" />
    <path
       style="fill:#211e1e;fill-opacity:1;fill-rule:nonzero;stroke:none"
       d="m 249.40234,71.878906 c -0.5039,-0.550781 -1.28125,-0.894531 -2.09375,-0.894531 -1.80859,0 -2.95703,1.617188 -2.95703,3.820313 0,2.898437 1.58985,3.964843 2.99219,3.964843 1.41797,0 2.9375,-1.035156 3.02344,-3.585937 0.0469,-1.273438 -0.28907,-2.566406 -0.96485,-3.304688 z m -2.05859,9.460938 c -3.78516,0 -5.92969,-2.964844 -5.92969,-6.480469 0,-3.289062 2.04297,-6.410156 5.875,-6.410156 0.71485,0 1.45703,0.101562 2.1836,0.363281 3.64453,1.289063 3.88281,5.339844 3.88281,6.167969 0,2.101562 -0.94531,3.996094 -2.26172,5.082031 -1.16406,0.980469 -2.51563,1.277344 -3.75,1.277344"
       id="path52"
       inkscape:connector-curvature="0" />
    <path
       style="fill:#211e1e;fill-opacity:1;fill-rule:nonzero;stroke:none"
       d="m 256.75,68.8125 h 2.97266 v 9.613281 h 4.66406 v 2.566407 H 256.75 V 68.8125"
       id="path54"
       inkscape:connector-curvature="0" />
    <path
       style="fill:#211e1e;fill-opacity:1;fill-rule:nonzero;stroke:none"
       d="m 274.64062,71.878906 c -0.50781,-0.550781 -1.28515,-0.894531 -2.09375,-0.894531 -1.80859,0 -2.95703,1.617188 -2.95703,3.820313 0,2.898437 1.58594,3.964843 2.98828,3.964843 1.41797,0 2.94141,-1.035156 3.02344,-3.585937 0.0508,-1.273438 -0.28515,-2.566406 -0.96094,-3.304688 z m -2.0625,9.460938 c -3.78125,0 -5.92968,-2.964844 -5.92968,-6.480469 0,-3.289062 2.04687,-6.410156 5.8789,-6.410156 0.71094,0 1.45313,0.101562 2.17969,0.363281 3.64844,1.289063 3.88281,5.339844 3.88281,6.167969 0,2.101562 -0.94531,3.996094 -2.26172,5.082031 -1.16406,0.980469 -2.51562,1.277344 -3.75,1.277344"
       id="path56"
       inkscape:connector-curvature="0" />
    <path
       style="fill:#211e1e;fill-opacity:1;fill-rule:nonzero;stroke:none"
       d="m 290.39844,79.855469 c -0.49219,0.464844 -1.50391,1.414062 -3.51563,1.414062 -3.32422,0 -5.37109,-2.757812 -5.37109,-6.34375 0,-3.90625 2.48437,-6.511718 5.8789,-6.511718 3.16016,0 4.69532,2.070312 5.25391,2.808593 l -2.26562,1.394532 c -0.41797,-0.652344 -1.11329,-1.71875 -2.76954,-1.71875 -2.26171,0 -3.125,1.910156 -3.125,3.945312 0,1.375 0.3711,2.496094 0.94532,3.097656 0.45703,0.503907 1.26953,0.882813 2.17968,0.882813 0.54297,0 1.14844,-0.140625 1.63672,-0.46875 0.77735,-0.515625 0.88282,-1.171875 0.96485,-1.808594 h -2.66797 v -2.308594 h 5.18359 v 6.753907 h -2.32812 v -1.136719"
       id="path58"
       inkscape:connector-curvature="0" />
    <path
       style="fill:#211e1e;fill-opacity:1;fill-rule:nonzero;stroke:none"
       d="m 294.37109,68.828125 h 3.42969 L 300.36719,73 c 0.15234,-0.34375 0.18359,-0.414062 0.48828,-0.914062 l 2.04297,-3.257813 h 3.39843 l -4.51171,6.410156 v 5.753907 h -2.9375 v -5.667969 l -4.47657,-6.496094"
       id="path60"
       inkscape:connector-curvature="0" />
  </g>
</svg>
