<svg xmlns="http://www.w3.org/2000/svg" width="64" height="64"><path d="M50.5 34.862V50a.5.5 0 0 1-.5.5H22a1.5 1.5 0 0 0-1.5 1.5v6.378l-7.439-7.439A1.5 1.5 0 0 0 12 50.5H4a.5.5 0 0 1-.5-.5V16a.5.5 0 0 1 .5-.5h23.5v-3H4A3.5 3.5 0 0 0 .5 16v34A3.5 3.5 0 0 0 4 53.5h7.379l9.56 9.56A1.5 1.5 0 0 0 23.5 62v-8.5H50a3.5 3.5 0 0 0 3.5-3.5V31.862z"/><circle cx="14.397" cy="44.477" r="2" transform="rotate(-13.283 14.398 44.477)"/><path d="M14.4 39.982a1.5 1.5 0 0 1-1.5-1.5v-5.69a1.5 1.5 0 0 1 1.5-1.5 4.9 4.9 0 0 0 4.89-5.159 4.9 4.9 0 0 0-9.74-.422 4.977 4.977 0 0 0-.05.689 1.5 1.5 0 0 1-3 0 7.9 7.9 0 1 1 9.4 7.751v4.335a1.5 1.5 0 0 1-1.5 1.496zM46 44.832H22a1.5 1.5 0 1 1 0-3h24a1.5 1.5 0 0 1 0 3zM41 33.165H27a1.5 1.5 0 0 0 0 3h14a1.5 1.5 0 0 0 0-3z"/><path d="M61 .5H33A2.5 2.5 0 0 0 30.5 3v22a2.5 2.5 0 0 0 2.5 2.5h12.5V32a1.5 1.5 0 0 0 2.561 1.061l5.56-5.561H61a2.5 2.5 0 0 0 2.5-2.5V3A2.5 2.5 0 0 0 61 .5zM37.75 16a2 2 0 1 1 2-2 2 2 0 0 1-2 2zM47 16a2 2 0 1 1 2-2 2 2 0 0 1-2 2zm9.25 0a2 2 0 1 1 2-2 2 2 0 0 1-2 2z" style="fill:#3e3ef4"/></svg>