<svg xmlns="http://www.w3.org/2000/svg" xml:space="preserve" width="655.359" height="655.359" style="shape-rendering:geometricPrecision;text-rendering:geometricPrecision;image-rendering:optimizeQuality;fill-rule:evenodd;clip-rule:evenodd" viewBox="0 0 6.827 6.827"><defs><style>.fil0{fill:#212121;fill-rule:nonzero}</style></defs><g id="Layer_x0020_1"><g id="_267713216"><path id="_267712808" class="fil0" d="M3.413 1.84a.419.419 0 0 1 .297.718.419.419 0 0 1-.717-.297.419.419 0 0 1 .42-.42zm.147.274a.206.206 0 0 0-.354.147.206.206 0 0 0 .354.146.206.206 0 0 0 0-.293z"/><path id="_267712976" class="fil0" d="M3.37 5.03v.837h-.213V5.03z"/><path id="_267713120" class="fil0" d="M3.632 5.03v.837h-.213V5.03z"/><path id="_267713456" class="fil0" d="M3.336 4.767h.155a9.677 9.677 0 0 0 .131-.349l.043-.12.11.063.496.286.03-.306-.46-.422-.048-.044.016-.061c.169-.647.197-1.18.108-1.634a2.337 2.337 0 0 0-.504-1.057c-.25.306-.424.65-.504 1.057-.088.453-.06.987.109 1.634l.016.061-.048.044-.46.422.03.306.495-.286.11-.064.044.121a9.386 9.386 0 0 0 .13.35zm.227.213h-.37l-.028-.066a10.586 10.586 0 0 1-.118-.305l-.527.305-.143.082-.016-.164-.052-.523-.006-.052.04-.036.453-.416C2.633 3.153 2.609 2.61 2.7 2.14c.095-.49.315-.894.634-1.25l.08-.09.078.09c.32.356.54.76.635 1.25.09.469.067 1.013-.096 1.665l.453.416.04.036-.006.052-.052.523-.017.164-.142-.082-.528-.305a10.396 10.396 0 0 1-.117.305l-.028.066h-.071z"/></g></g><path style="fill:none" d="M0 0h6.827v6.827H0z"/></svg>